<svg baseProfile="full" height="1717.0" version="1.1" width="2000" xmlns="http://www.w3.org/2000/svg" xmlns:ev="http://www.w3.org/2001/xml-events" xmlns:xlink="http://www.w3.org/1999/xlink"><defs><marker id="id1" markerHeight="10" markerWidth="10" orient="auto" refX="0" refY="3"><path d="M6,0 L6,7 L0,3 L6,0" fill="#fcdbdb" /></marker><marker id="id2" markerHeight="10" markerWidth="10" orient="auto" refX="6" refY="3"><path d="M0,0 L0,7 L6,3 L0,0" fill="#fcdbdb" /></marker><marker id="id3" markerHeight="10" markerWidth="10" orient="auto" refX="0" refY="3"><path d="M6,0 L6,7 L0,3 L6,0" fill="#cbd9ef" /></marker><marker id="id4" markerHeight="10" markerWidth="10" orient="auto" refX="6" refY="3"><path d="M0,0 L0,7 L6,3 L0,0" fill="#cbd9ef" /></marker></defs><rect fill="#fcdbdb" fill-opacity="0.7" height="1717.0" width="627" x="186" y="0" /><rect fill="#cbd9ef" fill-opacity="0.7" height="1717.0" width="1020" x="813" y="0" /><rect fill="#000000" fill-opacity="0.7" height="64" width="214" x="8" y="8" /><rect fill="#ffaf4f" fill-opacity="1.0" height="60" width="210" x="10" y="10" /><text fill="#000000" font-family="Comic Sans" font-size="20" stroke="none" text-anchor="start" x="35" y="30">Pre-Dating = </text><circle cx="170" cy="25" fill="#fcdbdb" r="10" stroke="none" stroke-width="1" /><text fill="#000000" font-family="Comic Sans" font-size="20" stroke="none" text-anchor="start" x="35" y="60">Dating  = </text><circle cx="170" cy="55" fill="#cbd9ef" r="10" stroke="none" stroke-width="1" /><g transform="translate(0,1580)"><line stroke="#000000" stroke-width="3" x1="0" x2="2000" y1="0" y2="0" /><line stroke="#000000" stroke-width="3" x1="306" x2="306" y1="-10" y2="10" /><text fill="#000000" font-family="Comic Sans" font-size="9pt" stroke="#000000" text-anchor="end" transform="rotate(180, 306, 0)" writing-mode="tb" x="306" y="-20">August,    2017</text><line stroke="#000000" stroke-width="3" x1="444" x2="444" y1="-10" y2="10" /><text fill="#000000" font-family="Comic Sans" font-size="9pt" stroke="#000000" text-anchor="end" transform="rotate(180, 444, 0)" writing-mode="tb" x="444" y="-20">September,    2017</text><line stroke="#000000" stroke-width="3" x1="583" x2="583" y1="-10" y2="10" /><text fill="#000000" font-family="Comic Sans" font-size="9pt" stroke="#000000" text-anchor="end" transform="rotate(180, 583, 0)" writing-mode="tb" x="583" y="-20">October,    2017</text><line stroke="#000000" stroke-width="3" x1="722" x2="722" y1="-10" y2="10" /><text fill="#000000" font-family="Comic Sans" font-size="9pt" stroke="#000000" text-anchor="end" transform="rotate(180, 722, 0)" writing-mode="tb" x="722" y="-20">November,    2017</text><line stroke="#000000" stroke-width="3" x1="861" x2="861" y1="-10" y2="10" /><text fill="#000000" font-family="Comic Sans" font-size="9pt" stroke="#000000" text-anchor="end" transform="rotate(180, 861, 0)" writing-mode="tb" x="861" y="-20">December,    2017</text><line stroke="#000000" stroke-width="3" x1="1000" x2="1000" y1="-10" y2="10" /><text fill="#000000" font-family="Comic Sans" font-size="9pt" stroke="#000000" text-anchor="end" transform="rotate(180, 1000, 0)" writing-mode="tb" x="1000" y="-20">Jan,    2018</text><line stroke="#000000" stroke-width="3" x1="1139" x2="1139" y1="-10" y2="10" /><text fill="#000000" font-family="Comic Sans" font-size="9pt" stroke="#000000" text-anchor="end" transform="rotate(180, 1139, 0)" writing-mode="tb" x="1139" y="-20">Feb,    2018</text><line stroke="#000000" stroke-width="3" x1="1278" x2="1278" y1="-10" y2="10" /><text fill="#000000" font-family="Comic Sans" font-size="9pt" stroke="#000000" text-anchor="end" transform="rotate(180, 1278, 0)" writing-mode="tb" x="1278" y="-20">March,    2018</text><line stroke="#000000" stroke-width="3" x1="1417" x2="1417" y1="-10" y2="10" /><text fill="#000000" font-family="Comic Sans" font-size="9pt" stroke="#000000" text-anchor="end" transform="rotate(180, 1417, 0)" writing-mode="tb" x="1417" y="-20">April,    2018</text><line stroke="#000000" stroke-width="3" x1="1556" x2="1556" y1="-10" y2="10" /><text fill="#000000" font-family="Comic Sans" font-size="9pt" stroke="#000000" text-anchor="end" transform="rotate(180, 1556, 0)" writing-mode="tb" x="1556" y="-20">May,    2018</text><line stroke="#000000" stroke-width="3" x1="1694" x2="1694" y1="-10" y2="10" /><text fill="#000000" font-family="Comic Sans" font-size="9pt" stroke="#000000" text-anchor="end" transform="rotate(180, 1694, 0)" writing-mode="tb" x="1694" y="-20">June,    2018</text><path d="M654,0 L654,-50 L644,-50" fill="none" stroke="#000000" stroke-width="1" /><text fill="#000000" font-family="Comic Sans" font-size="16pt" stroke="none" text-anchor="end" x="641" y="-48.5">Friend Request Accepted</text><text fill="#1026ce" font-family="Comic Sans MS" font-size="14pt" stroke="none" text-anchor="end" x="651" y="-68.0">Nov 04, 2017 - 11:30AM</text><circle cx="654" cy="0" fill="white" r="4" stroke="#000000" stroke-width="1" /><path d="M663,0 L663,-130 L653,-130" fill="none" stroke="#000000" stroke-width="1" /><text fill="#000000" font-family="Comic Sans" font-size="16pt" stroke="none" text-anchor="end" x="650" y="-128.5">'We Be Chilling </text><text fill="#1026ce" font-family="Comic Sans MS" font-size="14pt" stroke="none" text-anchor="end" x="660" y="-148.0">Nov 06, 2017 - 09:37AM</text><circle cx="663" cy="0" fill="white" r="4" stroke="#000000" stroke-width="1" /><path d="M693,0 L693,-210 L683,-210" fill="none" stroke="#000000" stroke-width="1" /><text fill="#000000" font-family="Comic Sans" font-size="16pt" stroke="none" text-anchor="end" x="680" y="-208.5">'Maybe *we* can all do movie night' @Date attempt 1</text><text fill="#1026ce" font-family="Comic Sans MS" font-size="14pt" stroke="none" text-anchor="end" x="690" y="-228.0">Nov 12, 2017 - 08:29AM</text><circle cx="693" cy="0" fill="white" r="4" stroke="#000000" stroke-width="1" /><path d="M744,0 L744,-290 L734,-290" fill="none" stroke="#000000" stroke-width="1" /><text fill="#000000" font-family="Comic Sans" font-size="16pt" stroke="none" text-anchor="end" x="731" y="-288.5">Alcohol Escapade</text><text fill="#1026ce" font-family="Comic Sans MS" font-size="14pt" stroke="none" text-anchor="end" x="741" y="-308.0">Nov 22, 2017 - 04:06PM</text><circle cx="744" cy="0" fill="white" r="4" stroke="#000000" stroke-width="1" /><path d="M806,0 L806,-370 L796,-370" fill="none" stroke="#000000" stroke-width="1" /><text fill="#000000" font-family="Comic Sans" font-size="16pt" stroke="none" text-anchor="end" x="793" y="-368.5">Target Located @ 9514</text><text fill="#1026ce" font-family="Comic Sans MS" font-size="14pt" stroke="none" text-anchor="end" x="803" y="-388.0">Dec 05, 2017 - 09:20AM</text><circle cx="806" cy="0" fill="white" r="4" stroke="#000000" stroke-width="1" /><path d="M814,0 L814,-450 L804,-450" fill="none" stroke="#000000" stroke-width="1" /><text fill="#000000" font-family="Comic Sans" font-size="16pt" stroke="none" text-anchor="end" x="801" y="-448.5">Confession</text><text fill="#1026ce" font-family="Comic Sans MS" font-size="14pt" stroke="none" text-anchor="end" x="811" y="-468.0">Dec 06, 2017 - 10:02PM</text><circle cx="814" cy="0" fill="white" r="4" stroke="#000000" stroke-width="1" /><path d="M828,0 L828,-530 L818,-530" fill="none" stroke="#000000" stroke-width="1" /><text fill="#000000" font-family="Comic Sans" font-size="16pt" stroke="none" text-anchor="end" x="815" y="-528.5">Expectation List</text><text fill="#1026ce" font-family="Comic Sans MS" font-size="14pt" stroke="none" text-anchor="end" x="825" y="-548.0">Dec 09, 2017 - 08:46PM</text><circle cx="828" cy="0" fill="white" r="4" stroke="#000000" stroke-width="1" /><path d="M837,0 L837,-610 L827,-610" fill="none" stroke="#000000" stroke-width="1" /><text fill="#000000" font-family="Comic Sans" font-size="16pt" stroke="none" text-anchor="end" x="824" y="-608.5">Happy Birthday Cuddling</text><text fill="#1026ce" font-family="Comic Sans MS" font-size="14pt" stroke="none" text-anchor="end" x="834" y="-628.0">Dec 11, 2017 - 04:06PM</text><circle cx="837" cy="0" fill="white" r="4" stroke="#000000" stroke-width="1" /><path d="M882,0 L882,-690 L872,-690" fill="none" stroke="#000000" stroke-width="1" /><text fill="#000000" font-family="Comic Sans" font-size="16pt" stroke="none" text-anchor="end" x="869" y="-688.5">The Pond and First Kiss</text><text fill="#1026ce" font-family="Comic Sans MS" font-size="14pt" stroke="none" text-anchor="end" x="879" y="-708.0">Dec 20, 2017 - 04:06PM</text><circle cx="882" cy="0" fill="white" r="4" stroke="#000000" stroke-width="1" /><path d="M1073,0 L1073,-770 L1063,-770" fill="none" stroke="#000000" stroke-width="1" /><text fill="#000000" font-family="Comic Sans" font-size="16pt" stroke="none" text-anchor="end" x="1060" y="-768.5">Sharkboy and Lavagirl Adventure</text><text fill="#1026ce" font-family="Comic Sans MS" font-size="14pt" stroke="none" text-anchor="end" x="1070" y="-788.0">Jan 28, 2018 - 10:00AM</text><circle cx="1073" cy="0" fill="white" r="4" stroke="#000000" stroke-width="1" /><path d="M1187,0 L1187,-850 L1177,-850" fill="none" stroke="#000000" stroke-width="1" /><text fill="#000000" font-family="Comic Sans" font-size="16pt" stroke="none" text-anchor="end" x="1174" y="-848.5">first dick pic [add pic]</text><text fill="#1026ce" font-family="Comic Sans MS" font-size="14pt" stroke="none" text-anchor="end" x="1184" y="-868.0">Feb 20, 2018 - 04:06PM</text><circle cx="1187" cy="0" fill="white" r="4" stroke="#000000" stroke-width="1" /><path d="M1340,0 L1340,-930 L1330,-930" fill="none" stroke="#000000" stroke-width="1" /><text fill="#000000" font-family="Comic Sans" font-size="16pt" stroke="none" text-anchor="end" x="1327" y="-928.5">Chetana Cries for the 1st time</text><text fill="#1026ce" font-family="Comic Sans MS" font-size="14pt" stroke="none" text-anchor="end" x="1337" y="-948.0">Mar 23, 2018 - 04:06PM</text><circle cx="1340" cy="0" fill="white" r="4" stroke="#000000" stroke-width="1" /><path d="M1342,0 L1342,-1010 L1332,-1010" fill="none" stroke="#000000" stroke-width="1" /><text fill="#000000" font-family="Comic Sans" font-size="16pt" stroke="none" text-anchor="end" x="1329" y="-1008.5">'I love you'</text><text fill="#1026ce" font-family="Comic Sans MS" font-size="14pt" stroke="none" text-anchor="end" x="1339" y="-1028.0">Mar 23, 2018 - 11:35PM</text><circle cx="1342" cy="0" fill="white" r="4" stroke="#000000" stroke-width="1" /><path d="M1345,0 L1345,-1090 L1335,-1090" fill="none" stroke="#000000" stroke-width="1" /><text fill="#000000" font-family="Comic Sans" font-size="16pt" stroke="none" text-anchor="end" x="1332" y="-1088.5">'I'm not even going to lie to you or anything'</text><text fill="#1026ce" font-family="Comic Sans MS" font-size="14pt" stroke="none" text-anchor="end" x="1342" y="-1108.0">Mar 24, 2018 - 04:06PM</text><circle cx="1345" cy="0" fill="white" r="4" stroke="#000000" stroke-width="1" /><path d="M1404,0 L1404,-1170 L1394,-1170" fill="none" stroke="#000000" stroke-width="1" /><text fill="#000000" font-family="Comic Sans" font-size="16pt" stroke="none" text-anchor="end" x="1391" y="-1168.5">Kurt opens up after talk</text><text fill="#1026ce" font-family="Comic Sans MS" font-size="14pt" stroke="none" text-anchor="end" x="1401" y="-1188.0">Apr 05, 2018 - 04:06PM</text><circle cx="1404" cy="0" fill="white" r="4" stroke="#000000" stroke-width="1" /><path d="M1404,0 L1404,-1250 L1394,-1250" fill="none" stroke="#000000" stroke-width="1" /><text fill="#000000" font-family="Comic Sans" font-size="16pt" stroke="none" text-anchor="end" x="1391" y="-1248.5">Serious Talk in Chetana's Car</text><text fill="#1026ce" font-family="Comic Sans MS" font-size="14pt" stroke="none" text-anchor="end" x="1401" y="-1268.0">Apr 05, 2018 - 04:06PM</text><circle cx="1404" cy="0" fill="white" r="4" stroke="#000000" stroke-width="1" /><path d="M1409,0 L1409,-1330 L1399,-1330" fill="none" stroke="#000000" stroke-width="1" /><text fill="#000000" font-family="Comic Sans" font-size="16pt" stroke="none" text-anchor="end" x="1396" y="-1328.5">Pond Part 2</text><text fill="#1026ce" font-family="Comic Sans MS" font-size="14pt" stroke="none" text-anchor="end" x="1406" y="-1348.0">Apr 06, 2018 - 04:06PM</text><circle cx="1409" cy="0" fill="white" r="4" stroke="#000000" stroke-width="1" /><path d="M1409,0 L1409,-1410 L1399,-1410" fill="none" stroke="#000000" stroke-width="1" /><text fill="#000000" font-family="Comic Sans" font-size="16pt" stroke="none" text-anchor="end" x="1396" y="-1408.5">Patapsco #1</text><text fill="#1026ce" font-family="Comic Sans MS" font-size="14pt" stroke="none" text-anchor="end" x="1406" y="-1428.0">Apr 06, 2018 - 04:06PM</text><circle cx="1409" cy="0" fill="white" r="4" stroke="#000000" stroke-width="1" /><path d="M1523,0 L1523,-1490 L1513,-1490" fill="none" stroke="#000000" stroke-width="1" /><text fill="#000000" font-family="Comic Sans" font-size="16pt" stroke="none" text-anchor="end" x="1510" y="-1488.5">Fort making and guarding</text><text fill="#1026ce" font-family="Comic Sans MS" font-size="14pt" stroke="none" text-anchor="end" x="1520" y="-1508.0">Apr 29, 2018 - 04:06PM</text><circle cx="1523" cy="0" fill="white" r="4" stroke="#000000" stroke-width="1" /><path d="M1651,0 L1651,-50 L1641,-50" fill="none" stroke="#000000" stroke-width="1" /><text fill="#000000" font-family="Comic Sans" font-size="16pt" stroke="none" text-anchor="end" x="1638" y="-48.5">Hiking</text><text fill="#1026ce" font-family="Comic Sans MS" font-size="14pt" stroke="none" text-anchor="end" x="1648" y="-68.0">May 25, 2018 - 04:06PM</text><circle cx="1651" cy="0" fill="white" r="4" stroke="#000000" stroke-width="1" /><path d="M1741,0 L1741,-130 L1731,-130" fill="none" stroke="#000000" stroke-width="1" /><text fill="#000000" font-family="Comic Sans" font-size="16pt" stroke="none" text-anchor="end" x="1728" y="-128.5">First Real Argument</text><text fill="#1026ce" font-family="Comic Sans MS" font-size="14pt" stroke="none" text-anchor="end" x="1738" y="-148.0">Jun 12, 2018 - 11:58PM</text><circle cx="1741" cy="0" fill="white" r="4" stroke="#000000" stroke-width="1" /><path d="M1764,0 L1764,-210 L1754,-210" fill="none" stroke="#000000" stroke-width="1" /><text fill="#000000" font-family="Comic Sans" font-size="16pt" stroke="none" text-anchor="end" x="1751" y="-208.5">Next Steps and Forever</text><text fill="#1026ce" font-family="Comic Sans MS" font-size="14pt" stroke="none" text-anchor="end" x="1761" y="-228.0">Jun 17, 2018 - 02:40PM</text><circle cx="1764" cy="0" fill="white" r="4" stroke="#000000" stroke-width="1" /><path d="M1764,0 L1764,-290 L1754,-290" fill="none" stroke="#000000" stroke-width="1" /><text fill="#000000" font-family="Comic Sans" font-size="16pt" stroke="none" text-anchor="end" x="1751" y="-288.5">Kurt writes letter</text><text fill="#1026ce" font-family="Comic Sans MS" font-size="14pt" stroke="none" text-anchor="end" x="1761" y="-308.0">Jun 17, 2018 - 03:56PM</text><circle cx="1764" cy="0" fill="white" r="4" stroke="#000000" stroke-width="1" /></g></svg>
