<svg baseProfile="full" height="2037.0" version="1.1" width="2000" xmlns="http://www.w3.org/2000/svg" xmlns:ev="http://www.w3.org/2001/xml-events" xmlns:xlink="http://www.w3.org/1999/xlink"><defs><marker id="id1" markerHeight="10" markerWidth="10" orient="auto" refX="0" refY="3"><path d="M6,0 L6,7 L0,3 L6,0" fill="#fcdbdb" /></marker><marker id="id2" markerHeight="10" markerWidth="10" orient="auto" refX="6" refY="3"><path d="M0,0 L0,7 L6,3 L0,0" fill="#fcdbdb" /></marker><marker id="id3" markerHeight="10" markerWidth="10" orient="auto" refX="0" refY="3"><path d="M6,0 L6,7 L0,3 L6,0" fill="#cbd9ef" /></marker><marker id="id4" markerHeight="10" markerWidth="10" orient="auto" refX="6" refY="3"><path d="M0,0 L0,7 L6,3 L0,0" fill="#cbd9ef" /></marker></defs><rect fill="#fcdbdb" fill-opacity="0.7" height="2037.0" width="627" x="186" y="0" /><rect fill="#cbd9ef" fill-opacity="0.7" height="2037.0" width="1020" x="813" y="0" /><rect fill="#000000" fill-opacity="0.7" height="64" width="214" x="8" y="8" /><rect fill="#ffaf4f" fill-opacity="1.0" height="60" width="210" x="10" y="10" /><text fill="#000000" font-family="Comic Sans" font-size="20" stroke="none" text-anchor="start" x="35" y="30">Pre-Dating = </text><circle cx="170" cy="25" fill="#fcdbdb" r="10" stroke="none" stroke-width="1" /><text fill="#000000" font-family="Comic Sans" font-size="20" stroke="none" text-anchor="start" x="35" y="60">Dating  = </text><circle cx="170" cy="55" fill="#cbd9ef" r="10" stroke="none" stroke-width="1" /><g transform="translate(0,1900)"><line stroke="#000000" stroke-width="3" x1="0" x2="2000" y1="0" y2="0" /><line stroke="#000000" stroke-width="3" x1="306" x2="306" y1="-10" y2="10" /><text fill="#000000" font-family="Comic Sans" font-size="9pt" stroke="#000000" text-anchor="end" transform="rotate(180, 306, 0)" writing-mode="tb" x="306" y="-20">August,    2017</text><line stroke="#000000" stroke-width="3" x1="444" x2="444" y1="-10" y2="10" /><text fill="#000000" font-family="Comic Sans" font-size="9pt" stroke="#000000" text-anchor="end" transform="rotate(180, 444, 0)" writing-mode="tb" x="444" y="-20">September,    2017</text><line stroke="#000000" stroke-width="3" x1="583" x2="583" y1="-10" y2="10" /><text fill="#000000" font-family="Comic Sans" font-size="9pt" stroke="#000000" text-anchor="end" transform="rotate(180, 583, 0)" writing-mode="tb" x="583" y="-20">October,    2017</text><line stroke="#000000" stroke-width="3" x1="722" x2="722" y1="-10" y2="10" /><text fill="#000000" font-family="Comic Sans" font-size="9pt" stroke="#000000" text-anchor="end" transform="rotate(180, 722, 0)" writing-mode="tb" x="722" y="-20">November,    2017</text><line stroke="#000000" stroke-width="3" x1="861" x2="861" y1="-10" y2="10" /><text fill="#000000" font-family="Comic Sans" font-size="9pt" stroke="#000000" text-anchor="end" transform="rotate(180, 861, 0)" writing-mode="tb" x="861" y="-20">December,    2017</text><line stroke="#000000" stroke-width="3" x1="1000" x2="1000" y1="-10" y2="10" /><text fill="#000000" font-family="Comic Sans" font-size="9pt" stroke="#000000" text-anchor="end" transform="rotate(180, 1000, 0)" writing-mode="tb" x="1000" y="-20">Jan,    2018</text><line stroke="#000000" stroke-width="3" x1="1139" x2="1139" y1="-10" y2="10" /><text fill="#000000" font-family="Comic Sans" font-size="9pt" stroke="#000000" text-anchor="end" transform="rotate(180, 1139, 0)" writing-mode="tb" x="1139" y="-20">Feb,    2018</text><line stroke="#000000" stroke-width="3" x1="1278" x2="1278" y1="-10" y2="10" /><text fill="#000000" font-family="Comic Sans" font-size="9pt" stroke="#000000" text-anchor="end" transform="rotate(180, 1278, 0)" writing-mode="tb" x="1278" y="-20">March,    2018</text><line stroke="#000000" stroke-width="3" x1="1417" x2="1417" y1="-10" y2="10" /><text fill="#000000" font-family="Comic Sans" font-size="9pt" stroke="#000000" text-anchor="end" transform="rotate(180, 1417, 0)" writing-mode="tb" x="1417" y="-20">April,    2018</text><line stroke="#000000" stroke-width="3" x1="1556" x2="1556" y1="-10" y2="10" /><text fill="#000000" font-family="Comic Sans" font-size="9pt" stroke="#000000" text-anchor="end" transform="rotate(180, 1556, 0)" writing-mode="tb" x="1556" y="-20">May,    2018</text><line stroke="#000000" stroke-width="3" x1="1694" x2="1694" y1="-10" y2="10" /><text fill="#000000" font-family="Comic Sans" font-size="9pt" stroke="#000000" text-anchor="end" transform="rotate(180, 1694, 0)" writing-mode="tb" x="1694" y="-20">June,    2018</text><path d="M653,0 L653,-50 L643,-50" fill="none" stroke="#000000" stroke-width="1" /><text fill="#000000" font-family="Comic Sans" font-size="16pt" stroke="none" text-anchor="end" x="640" y="-48.5">Friend Request Accepted</text><text fill="#1026ce" font-family="Comic Sans MS" font-size="14pt" stroke="none" text-anchor="end" x="650" y="-68.0">Nov 04, 2017 - 11:30AM</text><circle cx="653" cy="0" fill="white" r="4" stroke="#000000" stroke-width="1" /><path d="M663,0 L663,-130 L653,-130" fill="none" stroke="#000000" stroke-width="1" /><text fill="#000000" font-family="Comic Sans" font-size="16pt" stroke="none" text-anchor="end" x="650" y="-128.5">'We Be Chilling </text><text fill="#1026ce" font-family="Comic Sans MS" font-size="14pt" stroke="none" text-anchor="end" x="660" y="-148.0">Nov 06, 2017 - 09:37AM</text><circle cx="663" cy="0" fill="white" r="4" stroke="#000000" stroke-width="1" /><path d="M692,0 L692,-210 L682,-210" fill="none" stroke="#000000" stroke-width="1" /><text fill="#000000" font-family="Comic Sans" font-size="16pt" stroke="none" text-anchor="end" x="679" y="-208.5">'Maybe *we* can all do movie night' @Date attempt 1</text><text fill="#1026ce" font-family="Comic Sans MS" font-size="14pt" stroke="none" text-anchor="end" x="689" y="-228.0">Nov 12, 2017 - 08:29AM</text><circle cx="692" cy="0" fill="white" r="4" stroke="#000000" stroke-width="1" /><path d="M744,0 L744,-290 L734,-290" fill="none" stroke="#000000" stroke-width="1" /><text fill="#000000" font-family="Comic Sans" font-size="16pt" stroke="none" text-anchor="end" x="731" y="-288.5">Alcohol Escapade</text><text fill="#1026ce" font-family="Comic Sans MS" font-size="14pt" stroke="none" text-anchor="end" x="741" y="-308.0">Nov 22, 2017 - 08:03PM</text><circle cx="744" cy="0" fill="white" r="4" stroke="#000000" stroke-width="1" /><path d="M805,0 L805,-370 L795,-370" fill="none" stroke="#000000" stroke-width="1" /><text fill="#000000" font-family="Comic Sans" font-size="16pt" stroke="none" text-anchor="end" x="792" y="-368.5">Target Located @ 9514</text><text fill="#1026ce" font-family="Comic Sans MS" font-size="14pt" stroke="none" text-anchor="end" x="802" y="-388.0">Dec 05, 2017 - 09:20AM</text><circle cx="805" cy="0" fill="white" r="4" stroke="#000000" stroke-width="1" /><path d="M813,0 L813,-450 L803,-450" fill="none" stroke="#000000" stroke-width="1" /><text fill="#000000" font-family="Comic Sans" font-size="16pt" stroke="none" text-anchor="end" x="800" y="-448.5">Confession</text><text fill="#1026ce" font-family="Comic Sans MS" font-size="14pt" stroke="none" text-anchor="end" x="810" y="-468.0">Dec 06, 2017 - 10:02PM</text><circle cx="813" cy="0" fill="white" r="4" stroke="#000000" stroke-width="1" /><path d="M828,0 L828,-530 L818,-530" fill="none" stroke="#000000" stroke-width="1" /><text fill="#000000" font-family="Comic Sans" font-size="16pt" stroke="none" text-anchor="end" x="815" y="-528.5">Expectation List</text><text fill="#1026ce" font-family="Comic Sans MS" font-size="14pt" stroke="none" text-anchor="end" x="825" y="-548.0">Dec 09, 2017 - 08:46PM</text><circle cx="828" cy="0" fill="white" r="4" stroke="#000000" stroke-width="1" /><path d="M837,0 L837,-610 L827,-610" fill="none" stroke="#000000" stroke-width="1" /><text fill="#000000" font-family="Comic Sans" font-size="16pt" stroke="none" text-anchor="end" x="824" y="-608.5">Happy Birthday Cuddling</text><text fill="#1026ce" font-family="Comic Sans MS" font-size="14pt" stroke="none" text-anchor="end" x="834" y="-628.0">Dec 11, 2017 - 08:03PM</text><circle cx="837" cy="0" fill="white" r="4" stroke="#000000" stroke-width="1" /><path d="M882,0 L882,-690 L872,-690" fill="none" stroke="#000000" stroke-width="1" /><text fill="#000000" font-family="Comic Sans" font-size="16pt" stroke="none" text-anchor="end" x="869" y="-688.5">The Pond and First Kiss</text><text fill="#1026ce" font-family="Comic Sans MS" font-size="14pt" stroke="none" text-anchor="end" x="879" y="-708.0">Dec 20, 2017 - 08:03PM</text><circle cx="882" cy="0" fill="white" r="4" stroke="#000000" stroke-width="1" /><path d="M1072,0 L1072,-770 L1062,-770" fill="none" stroke="#000000" stroke-width="1" /><text fill="#000000" font-family="Comic Sans" font-size="16pt" stroke="none" text-anchor="end" x="1059" y="-768.5">Sharkboy and Lavagirl Adventure</text><text fill="#1026ce" font-family="Comic Sans MS" font-size="14pt" stroke="none" text-anchor="end" x="1069" y="-788.0">Jan 28, 2018 - 10:00AM</text><circle cx="1072" cy="0" fill="white" r="4" stroke="#000000" stroke-width="1" /><path d="M1187,0 L1187,-850 L1177,-850" fill="none" stroke="#000000" stroke-width="1" /><text fill="#000000" font-family="Comic Sans" font-size="16pt" stroke="none" text-anchor="end" x="1174" y="-848.5">first dick pic [add pic]</text><text fill="#1026ce" font-family="Comic Sans MS" font-size="14pt" stroke="none" text-anchor="end" x="1184" y="-868.0">Feb 20, 2018 - 08:03PM</text><circle cx="1187" cy="0" fill="white" r="4" stroke="#000000" stroke-width="1" /><path d="M1242,0 L1242,-930 L1232,-930" fill="none" stroke="#000000" stroke-width="1" /><text fill="#000000" font-family="Comic Sans" font-size="16pt" stroke="none" text-anchor="end" x="1229" y="-928.5">3 in a row</text><text fill="#1026ce" font-family="Comic Sans MS" font-size="14pt" stroke="none" text-anchor="end" x="1239" y="-948.0">Mar 03, 2018 - 08:03PM</text><circle cx="1242" cy="0" fill="white" r="4" stroke="#000000" stroke-width="1" /><path d="M1242,0 L1242,-1010 L1232,-1010" fill="none" stroke="#000000" stroke-width="1" /><text fill="#000000" font-family="Comic Sans" font-size="16pt" stroke="none" text-anchor="end" x="1229" y="-1008.5">Friend Request Accepted [Nika]</text><text fill="#1026ce" font-family="Comic Sans MS" font-size="14pt" stroke="none" text-anchor="end" x="1239" y="-1028.0">Mar 03, 2018 - 08:03PM</text><circle cx="1242" cy="0" fill="white" r="4" stroke="#000000" stroke-width="1" /><path d="M1340,0 L1340,-1090 L1330,-1090" fill="none" stroke="#000000" stroke-width="1" /><text fill="#000000" font-family="Comic Sans" font-size="16pt" stroke="none" text-anchor="end" x="1327" y="-1088.5">Chetana Cries for the 1st time</text><text fill="#1026ce" font-family="Comic Sans MS" font-size="14pt" stroke="none" text-anchor="end" x="1337" y="-1108.0">Mar 23, 2018 - 08:03PM</text><circle cx="1340" cy="0" fill="white" r="4" stroke="#000000" stroke-width="1" /><path d="M1341,0 L1341,-1170 L1331,-1170" fill="none" stroke="#000000" stroke-width="1" /><text fill="#000000" font-family="Comic Sans" font-size="16pt" stroke="none" text-anchor="end" x="1328" y="-1168.5">'I love you'</text><text fill="#1026ce" font-family="Comic Sans MS" font-size="14pt" stroke="none" text-anchor="end" x="1338" y="-1188.0">Mar 23, 2018 - 11:35PM</text><circle cx="1341" cy="0" fill="white" r="4" stroke="#000000" stroke-width="1" /><path d="M1345,0 L1345,-1250 L1335,-1250" fill="none" stroke="#000000" stroke-width="1" /><text fill="#000000" font-family="Comic Sans" font-size="16pt" stroke="none" text-anchor="end" x="1332" y="-1248.5">'I'm not even going to lie to you or anything'</text><text fill="#1026ce" font-family="Comic Sans MS" font-size="14pt" stroke="none" text-anchor="end" x="1342" y="-1268.0">Mar 24, 2018 - 08:03PM</text><circle cx="1345" cy="0" fill="white" r="4" stroke="#000000" stroke-width="1" /><path d="M1404,0 L1404,-1330 L1394,-1330" fill="none" stroke="#000000" stroke-width="1" /><text fill="#000000" font-family="Comic Sans" font-size="16pt" stroke="none" text-anchor="end" x="1391" y="-1328.5">Kurt opens up after talk</text><text fill="#1026ce" font-family="Comic Sans MS" font-size="14pt" stroke="none" text-anchor="end" x="1401" y="-1348.0">Apr 05, 2018 - 08:03PM</text><circle cx="1404" cy="0" fill="white" r="4" stroke="#000000" stroke-width="1" /><path d="M1404,0 L1404,-1410 L1394,-1410" fill="none" stroke="#000000" stroke-width="1" /><text fill="#000000" font-family="Comic Sans" font-size="16pt" stroke="none" text-anchor="end" x="1391" y="-1408.5">Serious Talk in Chetana's Car</text><text fill="#1026ce" font-family="Comic Sans MS" font-size="14pt" stroke="none" text-anchor="end" x="1401" y="-1428.0">Apr 05, 2018 - 08:03PM</text><circle cx="1404" cy="0" fill="white" r="4" stroke="#000000" stroke-width="1" /><path d="M1409,0 L1409,-1490 L1399,-1490" fill="none" stroke="#000000" stroke-width="1" /><text fill="#000000" font-family="Comic Sans" font-size="16pt" stroke="none" text-anchor="end" x="1396" y="-1488.5">Pond Part 2</text><text fill="#1026ce" font-family="Comic Sans MS" font-size="14pt" stroke="none" text-anchor="end" x="1406" y="-1508.0">Apr 06, 2018 - 08:03PM</text><circle cx="1409" cy="0" fill="white" r="4" stroke="#000000" stroke-width="1" /><path d="M1409,0 L1409,-1570 L1399,-1570" fill="none" stroke="#000000" stroke-width="1" /><text fill="#000000" font-family="Comic Sans" font-size="16pt" stroke="none" text-anchor="end" x="1396" y="-1568.5">Patapsco #1</text><text fill="#1026ce" font-family="Comic Sans MS" font-size="14pt" stroke="none" text-anchor="end" x="1406" y="-1588.0">Apr 06, 2018 - 08:03PM</text><circle cx="1409" cy="0" fill="white" r="4" stroke="#000000" stroke-width="1" /><path d="M1508,0 L1508,-1650 L1498,-1650" fill="none" stroke="#000000" stroke-width="1" /><text fill="#000000" font-family="Comic Sans" font-size="16pt" stroke="none" text-anchor="end" x="1495" y="-1648.5">Do you remember that meme I sent you this morning</text><text fill="#1026ce" font-family="Comic Sans MS" font-size="14pt" stroke="none" text-anchor="end" x="1505" y="-1668.0">Apr 26, 2018 - 08:03PM</text><circle cx="1508" cy="0" fill="white" r="4" stroke="#000000" stroke-width="1" /><path d="M1523,0 L1523,-1730 L1513,-1730" fill="none" stroke="#000000" stroke-width="1" /><text fill="#000000" font-family="Comic Sans" font-size="16pt" stroke="none" text-anchor="end" x="1510" y="-1728.5">Fort making and guarding</text><text fill="#1026ce" font-family="Comic Sans MS" font-size="14pt" stroke="none" text-anchor="end" x="1520" y="-1748.0">Apr 29, 2018 - 08:03PM</text><circle cx="1523" cy="0" fill="white" r="4" stroke="#000000" stroke-width="1" /><path d="M1528,0 L1528,-1810 L1518,-1810" fill="none" stroke="#000000" stroke-width="1" /><text fill="#000000" font-family="Comic Sans" font-size="16pt" stroke="none" text-anchor="end" x="1515" y="-1808.5">Happy Cats Everywhere</text><text fill="#1026ce" font-family="Comic Sans MS" font-size="14pt" stroke="none" text-anchor="end" x="1525" y="-1828.0">Apr 30, 2018 - 08:03PM</text><circle cx="1528" cy="0" fill="white" r="4" stroke="#000000" stroke-width="1" /><path d="M1651,0 L1651,-50 L1641,-50" fill="none" stroke="#000000" stroke-width="1" /><text fill="#000000" font-family="Comic Sans" font-size="16pt" stroke="none" text-anchor="end" x="1638" y="-48.5">Hiking</text><text fill="#1026ce" font-family="Comic Sans MS" font-size="14pt" stroke="none" text-anchor="end" x="1648" y="-68.0">May 25, 2018 - 08:03PM</text><circle cx="1651" cy="0" fill="white" r="4" stroke="#000000" stroke-width="1" /><path d="M1740,0 L1740,-130 L1730,-130" fill="none" stroke="#000000" stroke-width="1" /><text fill="#000000" font-family="Comic Sans" font-size="16pt" stroke="none" text-anchor="end" x="1727" y="-128.5">First Real Argument</text><text fill="#1026ce" font-family="Comic Sans MS" font-size="14pt" stroke="none" text-anchor="end" x="1737" y="-148.0">Jun 12, 2018 - 11:58PM</text><circle cx="1740" cy="0" fill="white" r="4" stroke="#000000" stroke-width="1" /><path d="M1763,0 L1763,-210 L1753,-210" fill="none" stroke="#000000" stroke-width="1" /><text fill="#000000" font-family="Comic Sans" font-size="16pt" stroke="none" text-anchor="end" x="1750" y="-208.5">Next Steps and Forever</text><text fill="#1026ce" font-family="Comic Sans MS" font-size="14pt" stroke="none" text-anchor="end" x="1760" y="-228.0">Jun 17, 2018 - 02:40PM</text><circle cx="1763" cy="0" fill="white" r="4" stroke="#000000" stroke-width="1" /><path d="M1763,0 L1763,-290 L1753,-290" fill="none" stroke="#000000" stroke-width="1" /><text fill="#000000" font-family="Comic Sans" font-size="16pt" stroke="none" text-anchor="end" x="1750" y="-288.5">Kurt writes letter</text><text fill="#1026ce" font-family="Comic Sans MS" font-size="14pt" stroke="none" text-anchor="end" x="1760" y="-308.0">Jun 17, 2018 - 03:56PM</text><circle cx="1763" cy="0" fill="white" r="4" stroke="#000000" stroke-width="1" /></g></svg>
