<svg baseProfile="full" height="421.0" version="1.1" width="2000" xmlns="http://www.w3.org/2000/svg" xmlns:ev="http://www.w3.org/2001/xml-events" xmlns:xlink="http://www.w3.org/1999/xlink"><defs><marker id="id1" markerHeight="10" markerWidth="10" orient="auto" refX="0" refY="3"><path d="M6,0 L6,7 L0,3 L6,0" fill="#CD3F85" /></marker><marker id="id2" markerHeight="10" markerWidth="10" orient="auto" refX="6" refY="3"><path d="M0,0 L0,7 L6,3 L0,0" fill="#CD3F85" /></marker><marker id="id3" markerHeight="10" markerWidth="10" orient="auto" refX="0" refY="3"><path d="M6,0 L6,7 L0,3 L6,0" fill="#C0C0FF" /></marker><marker id="id4" markerHeight="10" markerWidth="10" orient="auto" refX="6" refY="3"><path d="M0,0 L0,7 L6,3 L0,0" fill="#C0C0FF" /></marker><marker id="id5" markerHeight="10" markerWidth="10" orient="auto" refX="0" refY="3"><path d="M6,0 L6,7 L0,3 L6,0" fill="#fc642d" /></marker><marker id="id6" markerHeight="10" markerWidth="10" orient="auto" refX="6" refY="3"><path d="M0,0 L0,7 L6,3 L0,0" fill="#fc642d" /></marker></defs><rect fill="#CD3F85" fill-opacity="0.15" height="421.0" width="433" x="167" y="0" /><line stroke="#CD3F85" stroke-dasharray="5 5" stroke-width="0.5" x1="167" x2="167" y1="0" y2="250" /><line stroke="#CD3F85" stroke-dasharray="5 5" stroke-width="0.5" x1="600" x2="600" y1="0" y2="250" /><text fill="#CD3F85" font-family="Comic Sans MS" font-size="20pt" stroke="none" text-anchor="middle" x="383.5" y="25.0">Pre-Dating</text><rect fill="#C0C0FF" fill-opacity="0.15" height="421.0" width="195" x="600" y="0" /><line stroke="#C0C0FF" stroke-dasharray="5 5" stroke-width="0.5" x1="600" x2="600" y1="0" y2="250" /><line stroke="#C0C0FF" stroke-dasharray="5 5" stroke-width="0.5" x1="795" x2="795" y1="0" y2="250" /><text fill="#C0C0FF" font-family="Comic Sans MS" font-size="20pt" stroke="none" text-anchor="middle" x="697.5" y="25.0">'Dating'</text><rect fill="#fc642d" fill-opacity="0.15" height="421.0" width="1021" x="795" y="0" /><line stroke="#fc642d" stroke-dasharray="5 5" stroke-width="0.5" x1="795" x2="795" y1="0" y2="250" /><line stroke="#fc642d" stroke-dasharray="5 5" stroke-width="0.5" x1="1816" x2="1816" y1="0" y2="250" /><text fill="#fc642d" font-family="Comic Sans MS" font-size="20pt" stroke="none" text-anchor="middle" x="1305.5" y="25.0">Dating</text><g transform="translate(0,250)"><line stroke="#000000" stroke-width="3" x1="0" x2="2000" y1="0" y2="0" /><line stroke="#000000" stroke-width="3" x1="167" x2="167" y1="-10" y2="10" /><text fill="#000000" font-family="Comic Sans" font-size="9pt" stroke="#000000" text-anchor="end" transform="rotate(180, 167, 0)" writing-mode="tb" x="167" y="-20">Sep 01, 2017</text><line stroke="#000000" stroke-width="3" x1="1833" x2="1833" y1="-10" y2="10" /><text fill="#000000" font-family="Comic Sans" font-size="9pt" stroke="#000000" text-anchor="end" transform="rotate(180, 1833, 0)" writing-mode="tb" x="1833" y="-20">Jun 20, 2018</text><line stroke="#000000" stroke-width="3" x1="352" x2="352" y1="-10" y2="10" /><text fill="#000000" font-family="Comic Sans" font-size="9pt" stroke="#000000" text-anchor="end" transform="rotate(180, 352, 0)" writing-mode="tb" x="352" y="-20">October,    2017</text><line stroke="#000000" stroke-width="3" x1="537" x2="537" y1="-10" y2="10" /><text fill="#000000" font-family="Comic Sans" font-size="9pt" stroke="#000000" text-anchor="end" transform="rotate(180, 537, 0)" writing-mode="tb" x="537" y="-20">November,    2017</text><line stroke="#000000" stroke-width="3" x1="722" x2="722" y1="-10" y2="10" /><text fill="#000000" font-family="Comic Sans" font-size="9pt" stroke="#000000" text-anchor="end" transform="rotate(180, 722, 0)" writing-mode="tb" x="722" y="-20">December,    2017</text><line stroke="#000000" stroke-width="3" x1="907" x2="907" y1="-10" y2="10" /><text fill="#000000" font-family="Comic Sans" font-size="9pt" stroke="#000000" text-anchor="end" transform="rotate(180, 907, 0)" writing-mode="tb" x="907" y="-20">Jan,    2018</text><line stroke="#000000" stroke-width="3" x1="1093" x2="1093" y1="-10" y2="10" /><text fill="#000000" font-family="Comic Sans" font-size="9pt" stroke="#000000" text-anchor="end" transform="rotate(180, 1093, 0)" writing-mode="tb" x="1093" y="-20">Feb,    2018</text><line stroke="#000000" stroke-width="3" x1="1278" x2="1278" y1="-10" y2="10" /><text fill="#000000" font-family="Comic Sans" font-size="9pt" stroke="#000000" text-anchor="end" transform="rotate(180, 1278, 0)" writing-mode="tb" x="1278" y="-20">March,    2018</text><line stroke="#000000" stroke-width="3" x1="1463" x2="1463" y1="-10" y2="10" /><text fill="#000000" font-family="Comic Sans" font-size="9pt" stroke="#000000" text-anchor="end" transform="rotate(180, 1463, 0)" writing-mode="tb" x="1463" y="-20">April,    2018</text><line stroke="#000000" stroke-width="3" x1="1648" x2="1648" y1="-10" y2="10" /><text fill="#000000" font-family="Comic Sans" font-size="9pt" stroke="#000000" text-anchor="end" transform="rotate(180, 1648, 0)" writing-mode="tb" x="1648" y="-20">May,    2018</text><path d="M529,0 L529,-50 L519,-50" fill="none" stroke="#000000" stroke-width="1" /><text fill="#000000" font-family="Comic Sans" font-size="12pt" stroke="none" text-anchor="end" x="516" y="-48.5">Friend Request Accepted</text><text fill="#000000" font-family="Comic Sans" font-size="9pt" stroke="#000000" text-anchor="end" transform="rotate(180, 529, 0)" writing-mode="tb" x="529" y="-20">Nov 04, 2017 - 11:30AM</text><circle cx="529" cy="0" fill="white" r="4" stroke="#000000" stroke-width="1" /><path d="M540,0 L540,70 L530,70" fill="none" stroke="#000000" stroke-width="1" /><text fill="#000000" font-family="Comic Sans" font-size="12pt" stroke="none" text-anchor="end" x="527" y="68.5"> 'We Be Chilling </text><text fill="#000000" font-family="Comic Sans" font-size="9pt" stroke="#000000" text-anchor="end" transform="rotate(180, 540, 0)" writing-mode="tb" x="540" y="-20">Nov 06, 2017 - 09:37AM</text><circle cx="540" cy="0" fill="white" r="4" stroke="#000000" stroke-width="1" /><path d="M574,0 L574,-90 L564,-90" fill="none" stroke="#000000" stroke-width="1" /><text fill="#000000" font-family="Comic Sans" font-size="12pt" stroke="none" text-anchor="end" x="561" y="-88.5"> 'Maybe *we* can all do movie night' @Date attempt 1</text><text fill="#000000" font-family="Comic Sans" font-size="9pt" stroke="#000000" text-anchor="end" transform="rotate(180, 574, 0)" writing-mode="tb" x="574" y="-20">Nov 12, 2017 - 08:29AM</text><circle cx="574" cy="0" fill="white" r="4" stroke="#000000" stroke-width="1" /><path d="M635,0 L635,110 L625,110" fill="none" stroke="#000000" stroke-width="1" /><text fill="#000000" font-family="Comic Sans" font-size="12pt" stroke="none" text-anchor="end" x="622" y="108.5">Alcohol Escapade</text><text fill="#000000" font-family="Comic Sans" font-size="9pt" stroke="#000000" text-anchor="end" transform="rotate(180, 635, 0)" writing-mode="tb" x="635" y="-20">Nov 22, 2017 - 11:59PM</text><circle cx="635" cy="0" fill="white" r="4" stroke="#000000" stroke-width="1" /><path d="M705,0 L705,-130 L695,-130" fill="none" stroke="#000000" stroke-width="1" /><text fill="#000000" font-family="Comic Sans" font-size="12pt" stroke="none" text-anchor="end" x="692" y="-128.5">Target Located @ 9514</text><text fill="#000000" font-family="Comic Sans" font-size="9pt" stroke="#000000" text-anchor="end" transform="rotate(180, 705, 0)" writing-mode="tb" x="705" y="-20">Dec 05, 2017 - 09:20AM</text><circle cx="705" cy="0" fill="white" r="4" stroke="#000000" stroke-width="1" /><path d="M714,0 L714,150 L704,150" fill="none" stroke="#000000" stroke-width="1" /><text fill="#000000" font-family="Comic Sans" font-size="12pt" stroke="none" text-anchor="end" x="701" y="148.5">Confession</text><text fill="#000000" font-family="Comic Sans" font-size="9pt" stroke="#000000" text-anchor="end" transform="rotate(180, 714, 0)" writing-mode="tb" x="714" y="-20">Dec 06, 2017 - 10:02PM</text><circle cx="714" cy="0" fill="white" r="4" stroke="#000000" stroke-width="1" /><path d="M731,0 L731,-170 L721,-170" fill="none" stroke="#000000" stroke-width="1" /><text fill="#000000" font-family="Comic Sans" font-size="12pt" stroke="none" text-anchor="end" x="718" y="-168.5">Expectation List</text><text fill="#000000" font-family="Comic Sans" font-size="9pt" stroke="#000000" text-anchor="end" transform="rotate(180, 731, 0)" writing-mode="tb" x="731" y="-20">Dec 09, 2017 - 08:46PM</text><circle cx="731" cy="0" fill="white" r="4" stroke="#000000" stroke-width="1" /><path d="M795,0 L795,190 L785,190" fill="none" stroke="#000000" stroke-width="1" /><text fill="#000000" font-family="Comic Sans" font-size="12pt" stroke="none" text-anchor="end" x="782" y="188.5">The Pond and first kiss</text><text fill="#000000" font-family="Comic Sans" font-size="9pt" stroke="#000000" text-anchor="end" transform="rotate(180, 795, 0)" writing-mode="tb" x="795" y="-20">Dec 20, 2017 - 11:59PM</text><circle cx="795" cy="0" fill="white" r="4" stroke="#000000" stroke-width="1" /><path d="M1014,0 L1014,-50 L1004,-50" fill="none" stroke="#000000" stroke-width="1" /><text fill="#000000" font-family="Comic Sans" font-size="12pt" stroke="none" text-anchor="end" x="1001" y="-48.5">Sharkboy and Lavagirl Adventure</text><text fill="#000000" font-family="Comic Sans" font-size="9pt" stroke="#000000" text-anchor="end" transform="rotate(180, 1014, 0)" writing-mode="tb" x="1014" y="-20">Jan 28, 2018 - 10:00AM</text><circle cx="1014" cy="0" fill="white" r="4" stroke="#000000" stroke-width="1" /><path d="M1325,0 L1325,50 L1315,50" fill="none" stroke="#000000" stroke-width="1" /><text fill="#000000" font-family="Comic Sans" font-size="12pt" stroke="none" text-anchor="end" x="1312" y="48.5">I love you</text><text fill="#000000" font-family="Comic Sans" font-size="9pt" stroke="#000000" text-anchor="end" transform="rotate(180, 1325, 0)" writing-mode="tb" x="1325" y="-20">Mar 23, 2018 - 11:35PM</text><circle cx="1325" cy="0" fill="white" r="4" stroke="#000000" stroke-width="1" /><path d="M1815,0 L1815,-50 L1805,-50" fill="none" stroke="#000000" stroke-width="1" /><text fill="#000000" font-family="Comic Sans" font-size="12pt" stroke="none" text-anchor="end" x="1802" y="-48.5">Chetana says she wants to fuck a Male Labrador</text><text fill="#000000" font-family="Comic Sans" font-size="9pt" stroke="#000000" text-anchor="end" transform="rotate(180, 1815, 0)" writing-mode="tb" x="1815" y="-20">Jun 17, 2018 - 07:40PM</text><circle cx="1815" cy="0" fill="white" r="4" stroke="#000000" stroke-width="1" /></g></svg>
